<svg width="32" height="32" viewBox="0 0 32 32" fill="none" xmlns="http://www.w3.org/2000/svg">
<path d="M28.9351 25.125L28.1851 18.9C28.1601 18.6938 27.907 18.6063 27.7601 18.7531L25.907 20.6094L17.4289 12.1344C17.232 11.9406 16.9164 11.9406 16.7226 12.1344L13.5414 15.3125L4.8945 6.66564C4.84751 6.61912 4.78406 6.59302 4.71794 6.59302C4.65181 6.59302 4.58836 6.61912 4.54138 6.66564L3.13513 8.07814C3.0886 8.12513 3.0625 8.18858 3.0625 8.2547C3.0625 8.32083 3.0886 8.38428 3.13513 8.43127L13.1882 18.4906C13.382 18.6875 13.7008 18.6875 13.8945 18.4906L17.0758 15.3125L24.1414 22.375L22.2882 24.2281C22.2552 24.2614 22.2321 24.3032 22.2217 24.3488C22.2112 24.3945 22.2138 24.4422 22.2291 24.4865C22.2444 24.5307 22.2718 24.5698 22.3082 24.5993C22.3447 24.6288 22.3886 24.6474 22.4351 24.6531L28.6601 25.4031C28.8195 25.425 28.957 25.2875 28.9351 25.125Z" fill="#AF2228"/>
</svg>
