<svg width="31" height="31" viewBox="0 0 31 31" fill="none" xmlns="http://www.w3.org/2000/svg">
<path d="M15.5007 2.58337C22.6345 2.58337 28.4173 8.36617 28.4173 15.5C28.4173 22.6339 22.6345 28.4167 15.5007 28.4167C13.218 28.4206 10.9754 27.8165 9.00359 26.6665L2.58917 28.4167L4.3355 21.9997C3.18458 20.0272 2.58 17.7837 2.584 15.5C2.584 8.36617 8.3668 2.58337 15.5007 2.58337ZM11.0987 9.42921L10.8403 9.43954C10.6733 9.45105 10.5101 9.49492 10.3598 9.56871C10.2198 9.64816 10.0919 9.74734 9.98009 9.86321C9.82509 10.0092 9.73725 10.1357 9.64296 10.2585C9.1652 10.8796 8.90797 11.6422 8.91188 12.4259C8.91446 13.0588 9.0798 13.6749 9.33813 14.251C9.86642 15.4161 10.7357 16.6496 11.8827 17.7927C12.1591 18.0679 12.4304 18.3443 12.7223 18.6013C14.1476 19.8561 15.8459 20.761 17.6823 21.2441L18.416 21.3565C18.6549 21.3694 18.8939 21.3513 19.1341 21.3397C19.5102 21.3198 19.8775 21.218 20.2101 21.0413C20.3791 20.9539 20.5442 20.8591 20.7048 20.7571C20.7048 20.7571 20.7595 20.7201 20.8663 20.6409C21.0406 20.5117 21.1478 20.42 21.2925 20.2689C21.401 20.1569 21.4914 20.0269 21.5638 19.8788C21.6645 19.6682 21.7653 19.2665 21.8066 18.932C21.8376 18.6762 21.8285 18.5367 21.8247 18.4502C21.8195 18.312 21.7045 18.1686 21.5793 18.1079L20.8275 17.7708C20.8275 17.7708 19.7038 17.2812 19.0166 16.9687C18.9447 16.9374 18.8676 16.9194 18.7893 16.9157C18.7009 16.9065 18.6115 16.9163 18.5273 16.9446C18.443 16.9729 18.3659 17.019 18.301 17.0797C18.2945 17.0772 18.208 17.1508 17.2741 18.2823C17.2205 18.3543 17.1467 18.4087 17.062 18.4387C16.9774 18.4686 16.8857 18.4726 16.7988 18.4502C16.7146 18.4278 16.6322 18.3993 16.5521 18.365C16.3919 18.2978 16.3364 18.272 16.2266 18.2255C15.485 17.9024 14.7986 17.4653 14.1922 16.9299C14.0295 16.7878 13.8783 16.6328 13.7233 16.483C13.2152 15.9963 12.7723 15.4458 12.4058 14.8452L12.3296 14.7225C12.2757 14.6395 12.2315 14.5507 12.1979 14.4577C12.1488 14.2678 12.2767 14.1154 12.2767 14.1154C12.2767 14.1154 12.5905 13.7718 12.7365 13.5858C12.8786 13.405 12.9987 13.2293 13.0762 13.104C13.2286 12.8586 13.2764 12.6067 13.1963 12.4117C12.8347 11.5282 12.4609 10.6494 12.0752 9.77537C11.999 9.60229 11.7729 9.47829 11.5675 9.45375C11.4978 9.44514 11.428 9.43825 11.3583 9.43308C11.1849 9.42313 11.011 9.42486 10.8378 9.43825L11.0987 9.42921Z" fill="#AF2228"/>
</svg>
