<svg width="34" height="34" viewBox="0 0 34 34" fill="none" xmlns="http://www.w3.org/2000/svg">
<path d="M27.5683 14.1667C27.4286 14.3733 27.3458 14.613 27.3284 14.8617C27.311 15.1105 27.3596 15.3594 27.4692 15.5834C27.8201 16.4043 28.0675 17.2656 28.2058 18.1476C28.5705 20.4286 28.2294 22.7666 27.2283 24.8484C27.1068 25.0767 26.925 25.2674 26.7027 25.3998C26.4804 25.5322 26.2262 25.6011 25.9675 25.5992H8.04667C7.78653 25.5998 7.53126 25.5287 7.30886 25.3937C7.08645 25.2588 6.9055 25.0652 6.78583 24.8342C5.87899 22.9946 5.48837 20.9434 5.65559 18.8992C5.82282 16.855 6.54163 14.8946 7.7354 13.2268C8.92917 11.559 10.5531 10.2464 12.4342 9.42896C14.3153 8.61152 16.3829 8.31986 18.4167 8.58507C19.4457 8.70621 20.4522 8.97334 21.4058 9.3784C21.6298 9.48801 21.8787 9.53656 22.1275 9.51915C22.3762 9.50174 22.616 9.41898 22.8225 9.27923C23.0377 9.13749 23.2101 8.93974 23.3212 8.70729C23.4324 8.47484 23.478 8.21647 23.4532 7.96001C23.4285 7.70355 23.3342 7.4587 23.1806 7.25181C23.0271 7.04493 22.82 6.88385 22.5817 6.7859C19.8449 5.61241 16.808 5.33111 13.9023 5.98194C10.9966 6.63277 8.36987 8.18264 6.39519 10.4114C4.42052 12.6402 3.19834 15.4345 2.90225 18.3974C2.60617 21.3604 3.25124 24.3413 4.74583 26.9167C4.99306 27.345 5.34804 27.701 5.77551 27.9496C6.20298 28.1981 6.68804 28.3304 7.1825 28.3334H26.8033C27.3026 28.3354 27.7935 28.2054 28.2264 27.9566C28.6593 27.7079 29.0187 27.3491 29.2683 26.9167C30.3625 25.0204 31.0023 22.8963 31.1375 20.7112C31.2727 18.526 30.8996 16.3393 30.0475 14.3226C29.9396 14.0927 29.7719 13.8961 29.5619 13.7533C29.3519 13.6105 29.1075 13.5268 28.854 13.5108C28.6006 13.4949 28.3476 13.5474 28.1214 13.6628C27.8952 13.7782 27.7042 13.9522 27.5683 14.1667Z" fill="#AF2228"/>
<path d="M15.0022 17.8357C14.4706 18.3674 14.1719 19.0884 14.1719 19.8403C14.1719 20.2126 14.2452 20.5812 14.3877 20.9252C14.5301 21.2691 14.739 21.5816 15.0022 21.8449C15.2654 22.1081 15.578 22.3169 15.9219 22.4594C16.2659 22.6019 16.6345 22.6752 17.0068 22.6752C17.7586 22.6752 18.4797 22.3765 19.0114 21.8449L27.0297 9.81738L15.0022 17.8357Z" fill="#AF2228"/>
</svg>
